<?xml version="1.0" encoding="utf-8"?>
<svg viewBox="49.83 33.213 179.19 35.03" width="179.19" height="35.03" xmlns="http://www.w3.org/2000/svg">
  <path fill="#c1282d" d="M34.67 0h144.52v35H34.67z" transform="matrix(1, 0, 0, 1, 49.830485, 33.212822)"/>
  <path fill="#ef4041" d="M0 .03h111.25v35H0z" transform="matrix(1, 0, 0, 1, 49.830485, 33.212822)"/>
  <path fill="#fff" d="M 14.718 12.326 L 17.178 18.856 L 19.638 12.316 L 21.558 12.316 L 21.558 20.856 L 20.078 20.856 L 20.078 18.046 L 20.228 14.286 L 17.698 20.856 L 16.638 20.856 L 14.128 14.286 L 14.278 18.046 L 14.278 20.856 L 12.798 20.856 L 12.798 12.326 L 14.718 12.326 Z M 30.798 18.856 L 27.498 18.856 L 26.798 20.856 L 25.288 20.856 L 28.508 12.326 L 29.798 12.326 L 33.068 20.856 L 31.518 20.856 L 30.798 18.856 Z M 27.908 17.656 L 30.378 17.656 L 29.138 14.116 L 27.908 17.656 Z M 36.678 20.856 L 36.678 12.326 L 39.198 12.326 C 39.897 12.315 40.587 12.487 41.198 12.826 C 41.781 13.159 42.254 13.656 42.558 14.256 C 42.887 14.913 43.052 15.64 43.038 16.376 L 43.038 16.856 C 43.055 17.594 42.89 18.325 42.558 18.986 C 42.25 19.586 41.769 20.08 41.178 20.406 C 40.564 20.739 39.876 20.911 39.178 20.906 L 36.678 20.856 Z M 38.158 13.516 L 38.158 19.666 L 39.158 19.666 C 39.835 19.707 40.493 19.438 40.948 18.936 C 41.385 18.334 41.597 17.598 41.548 16.856 L 41.548 16.386 C 41.6 15.631 41.388 14.881 40.948 14.266 C 40.51 13.763 39.863 13.493 39.198 13.536 L 38.158 13.516 Z M 52.138 17.046 L 48.638 17.046 L 48.638 19.676 L 52.738 19.676 L 52.738 20.856 L 47.158 20.856 L 47.158 12.326 L 52.698 12.326 L 52.698 13.526 L 48.638 13.526 L 48.638 15.856 L 52.138 15.856 L 52.138 17.046 Z M 68.898 18.746 L 70.208 12.326 L 71.678 12.326 L 69.678 20.856 L 68.298 20.856 L 66.678 14.626 L 65.018 20.856 L 63.588 20.856 L 61.588 12.326 L 63.098 12.326 L 64.418 18.736 L 66.048 12.326 L 67.288 12.326 L 68.898 18.746 Z M 76.968 20.856 L 75.498 20.856 L 75.498 12.326 L 76.978 12.326 L 76.968 20.856 Z M 87.428 13.516 L 84.798 13.516 L 84.798 20.856 L 83.298 20.856 L 83.298 13.516 L 80.658 13.516 L 80.658 12.316 L 87.428 12.316 L 87.428 13.516 Z M 97.958 20.856 L 96.488 20.856 L 96.488 17.066 L 92.668 17.066 L 92.668 20.856 L 91.188 20.856 L 91.188 12.326 L 92.668 12.326 L 92.668 15.856 L 96.478 15.856 L 96.478 12.326 L 97.958 12.326 L 97.958 20.856 Z" transform="matrix(1, 0, 0, 1, 49.830485, 33.212822)"/>
  <path d="M 120.934 21.901 L 120.934 12.281 L 122.124 12.281 L 122.124 16.731 L 126.154 12.281 L 127.634 12.281 L 123.934 16.321 L 128.194 21.901 L 126.714 21.901 L 123.124 17.191 L 122.124 18.291 L 122.124 21.901 L 120.934 21.901 ZM 131.02 17.091 C 131.02 16.178 131.164 15.408 131.45 14.781 C 131.737 14.148 132.104 13.641 132.55 13.261 C 132.997 12.874 133.494 12.594 134.04 12.421 C 134.594 12.248 135.134 12.161 135.66 12.161 C 136.187 12.161 136.724 12.234 137.27 12.381 C 137.824 12.521 138.324 12.778 138.77 13.151 C 139.217 13.524 139.584 14.031 139.87 14.671 C 140.157 15.311 140.3 16.124 140.3 17.111 C 140.3 18.031 140.157 18.804 139.87 19.431 C 139.584 20.064 139.217 20.578 138.77 20.971 C 138.324 21.364 137.824 21.648 137.27 21.821 C 136.724 21.994 136.187 22.081 135.66 22.081 C 135.134 22.081 134.594 21.998 134.04 21.831 C 133.494 21.664 132.997 21.388 132.55 21.001 C 132.104 20.614 131.737 20.101 131.45 19.461 C 131.164 18.821 131.02 18.031 131.02 17.091 Z M 138.96 17.161 C 138.96 15.894 138.667 14.931 138.08 14.271 C 137.487 13.611 136.697 13.281 135.71 13.281 C 135.217 13.281 134.764 13.361 134.35 13.521 C 133.944 13.674 133.594 13.908 133.3 14.221 C 133 14.528 132.77 14.914 132.61 15.381 C 132.444 15.848 132.36 16.394 132.36 17.021 C 132.36 18.288 132.654 19.261 133.24 19.941 C 133.827 20.621 134.614 20.961 135.6 20.961 C 136.087 20.961 136.54 20.881 136.96 20.721 C 137.374 20.568 137.727 20.331 138.02 20.011 C 138.314 19.691 138.544 19.298 138.71 18.831 C 138.877 18.358 138.96 17.801 138.96 17.161 ZM 146.605 21.901 L 146.605 13.381 L 143.585 13.381 L 143.585 12.281 L 150.805 12.281 L 150.805 13.381 L 147.785 13.381 L 147.785 21.901 L 146.605 21.901 ZM 154.881 21.901 L 154.881 12.281 L 156.071 12.281 L 156.071 20.771 L 160.441 20.771 L 160.441 21.901 L 154.881 21.901 ZM 164.515 21.901 L 164.515 12.281 L 165.705 12.281 L 165.705 21.901 L 164.515 21.901 ZM 170.78 21.901 L 170.78 12.281 L 171.91 12.281 L 176.96 19.911 L 176.98 19.911 C 176.967 19.638 176.953 19.348 176.94 19.041 C 176.92 18.774 176.91 18.471 176.91 18.131 C 176.903 17.784 176.9 17.434 176.9 17.081 L 176.9 12.281 L 178.03 12.281 L 178.03 21.901 L 176.9 21.901 L 171.85 14.241 L 171.82 14.241 C 171.833 14.528 171.85 14.824 171.87 15.131 C 171.877 15.404 171.883 15.711 171.89 16.051 C 171.903 16.391 171.91 16.738 171.91 17.091 L 171.91 21.901 L 170.78 21.901 Z" transform="matrix(1, 0, 0, 1, 45.903472900390625, 32.19179916381836)" style="fill: rgb(255, 255, 255); text-transform: uppercase; white-space: pre;"/>
</svg>